<mxfile host="app.diagrams.net" modified="2023-08-15T11:30:13.736Z" agent="Mozilla/5.0 (Windows NT 10.0; Win64; x64; rv:109.0) Gecko/20100101 Firefox/116.0" version="21.6.8" etag="tBLT_ULnZh-GtP2xsxTC" type="github">
  <diagram name="Страница — 1" id="98q6O0aFMQCR1bf1YkXJ">
    <mxGraphModel>
      <root>
        <mxCell id="0" />
        <mxCell id="1" parent="0" />
      </root>
    </mxGraphModel>
  </diagram>
</mxfile>
